<svg xmlns="http://www.w3.org/2000/svg" xmlns:xlink="http://www.w3.org/1999/xlink" version="1.1" x="0px" y="0px" viewBox="0 0 100 125" style="enable-background:new 0 0 100 100;" xml:space="preserve"><g><path d="M86.4,2.5H32c-6.1,0-11.1,5-11.1,11.1v7.3h-7.3c-6.1,0-11.1,5-11.1,11.1v54.5c0,6.1,5,11.1,11.1,11.1H68   c6.1,0,11.1-5,11.1-11.1v-7.3h7.3c6.1,0,11.1-5,11.1-11.1V13.6C97.5,7.5,92.5,2.5,86.4,2.5z M70.9,86.4c0,1.6-1.3,2.9-2.9,2.9H13.6   c-1.6,0-2.9-1.3-2.9-2.9V32c0-1.6,1.3-2.9,2.9-2.9H68c1.6,0,2.9,1.3,2.9,2.9V86.4z M89.3,68c0,1.6-1.3,2.9-2.9,2.9h-7.3V32   c0-6.1-5-11.1-11.1-11.1h-39v-7.3c0-1.6,1.3-2.9,2.9-2.9h54.5c1.6,0,2.9,1.3,2.9,2.9V68z"/><path d="M57.9,55.1h-13v-13c0-2.3-1.8-4.1-4.1-4.1c-2.3,0-4.1,1.8-4.1,4.1v13h-13c-2.3,0-4.1,1.8-4.1,4.1c0,1.1,0.5,2.2,1.2,2.9   c0.7,0.7,1.8,1.2,2.9,1.2h13v13c0,1.1,0.5,2.2,1.2,2.9c0.7,0.7,1.8,1.2,2.9,1.2c2.3,0,4.1-1.8,4.1-4.1v-13h13   c2.3,0,4.1-1.8,4.1-4.1C62,56.9,60.1,55.1,57.9,55.1z"/></g><text x="0" y="115" fill="#000000" font-size="5px" font-weight="bold" font-family="'Helvetica Neue', Helvetica, Arial-Unicode, Arial, Sans-serif">Created by Alice Design</text><text x="0" y="120" fill="#000000" font-size="5px" font-weight="bold" font-family="'Helvetica Neue', Helvetica, Arial-Unicode, Arial, Sans-serif">from the Noun Project</text></svg>